# xmcd CD database file
#
# Track frame offsets:
#	150
#	18450
#	39450
#	61225
#	75900
#	102180
#	107775
#	130650
#
# Disc length: 2088 seconds
#
# Revision: 1
# Processed by: cddbd v1.4PL0 Copyright (c) Steve Scherf et al.
# Submitted via: CDex 1.50
#
DISCID=57082608
DTITLE=Stanley Clarke - Let Me Know You
DYEAR=1900
DGENRE=Jazz
TTITLE0=Straight To The Top
TTITLE1=Let Me Know You
TTITLE2=You Are The One For Me
TTITLE3=I Ust Want To Be Your Brother
TTITLE4=The Force Of Love
TTITLE5=Play The Bass
TTITLE6=Secret To My Heart
TTITLE7=New York City
EXTD=
EXTT0=
EXTT1=
EXTT2=
EXTT3=
EXTT4=
EXTT5=
EXTT6=
EXTT7=
PLAYORDER=
